# xmcd
#
# Track frame offsets: 
#        150
#        18057
#        35914
#        55771
#        72489
#        90836
#        110592
#        131861
#        152502
#        166635
#        181729
#
# Disc length: 2665 seconds
#
# Revision: 3
# Processed by: cddbd v1.5.2PL0 Copyright (c) Steve Scherf et al.
# Submitted via: ExactAudioCopyFreeDBPlugin 1.0
#
DISCID=820a670b
DTITLE=Jeremiah - Heart And Soul
DYEAR=1998
DGENRE=Country
TTITLE0='di Ko Kaya
TTITLE1=O Bakit
TTITLE2=If Only I Could
TTITLE3=Dancing To The Music
TTITLE4=Baby It Hurts
TTITLE5=Can We Put A Stop
TTITLE6=Nanghihinayang
TTITLE7=Hindi Ako Katulad Niya
TTITLE8=I Don't Wanna
TTITLE9=I'm Sorry
TTITLE10=Tell Me Girl (acapella)
EXTD=I Love you. for Liza. ID3G:   2
EXTT0=
EXTT1=
EXTT2=
EXTT3=
EXTT4=
EXTT5=
EXTT6=
EXTT7=
EXTT8=
EXTT9=
EXTT10=
PLAYORDER=
